<svg width="1920" height="1080" viewBox="0 0 1920 1080" fill="none" xmlns="http://www.w3.org/2000/svg">
<g clip-path="url(#clip0)">
<rect width="1920" height="1080" fill="#225555"/>
<rect x="-139.686" y="471.032" width="354" height="50" rx="25" transform="rotate(35.7777 -139.686 471.032)" fill="white"/>
<rect x="179.151" y="700.796" width="354" height="50" rx="25" transform="rotate(35.7777 179.151 700.796)" fill="white"/>
<rect x="497.989" y="930.561" width="354" height="50" rx="25" transform="rotate(35.7777 497.989 930.561)" fill="white"/>
<rect x="-85.1473" y="625.452" width="354" height="50" rx="25" transform="rotate(35.7777 -85.1473 625.452)" fill="white"/>
<rect x="233.69" y="855.217" width="354" height="50" rx="25" transform="rotate(35.7777 233.69 855.217)" fill="white"/>
<rect x="-37.9615" y="296.942" width="354" height="50" rx="25" transform="rotate(35.7777 -37.9615 296.942)" fill="white"/>
<rect x="286.555" y="530.799" width="354" height="50" rx="25" transform="rotate(35.7777 286.555 530.799)" fill="white"/>
<rect x="611.071" y="764.656" width="354" height="50" rx="25" transform="rotate(35.7777 611.071 764.656)" fill="white"/>
<rect x="-10.2935" y="427.425" width="354" height="50" rx="25" transform="rotate(35.7646 -10.2935 427.425)" fill="white"/>
<rect x="308.597" y="657.117" width="354" height="50" rx="25" transform="rotate(35.7646 308.597 657.117)" fill="white"/>
<rect x="627.487" y="886.808" width="354" height="50" rx="25" transform="rotate(35.7646 627.487 886.808)" fill="white"/>
</g>
<defs>
<clipPath id="clip0">
<rect width="1920" height="1080" fill="white"/>
</clipPath>
</defs>
</svg>
